<?xml version="1.0" encoding="utf-8"?>
<!-- Generator: Adobe Illustrator 22.0.0, SVG Export Plug-In . SVG Version: 6.00 Build 0)  -->
<svg version="1.1" id="Capa_1" xmlns="http://www.w3.org/2000/svg" xmlns:xlink="http://www.w3.org/1999/xlink" x="0px" y="0px"
	 viewBox="0 0 500 249" style="enable-background:new 0 0 500 249;" xml:space="preserve">
<style type="text/css">
	.st0{fill:#00193F;}
</style>
<g>
	<g>
		<path class="st0" d="M93.7,187.9l-29.5-76.8c-1-2.6-3.6-4.4-6.4-4.4H44v-8.6h13.9c6.3,0,12.1,4,14.4,9.9l29.5,76.8L93.7,187.9z"/>
	</g>
	<g>
		
			<rect x="0.9" y="140.1" transform="matrix(0.3822 -0.9241 0.9241 0.3822 -104.894 131.9686)" class="st0" width="90.8" height="8.6"/>
	</g>
	<g>
		<rect x="16" y="184.5" class="st0" width="30.3" height="8.6"/>
	</g>
	<g>
		<rect x="82.6" y="184.5" class="st0" width="30.3" height="8.6"/>
	</g>
	<g>
		<rect x="106" y="184.5" class="st0" width="30.3" height="8.6"/>
	</g>
	<g>
		<rect x="42.9" y="150.4" class="st0" width="41.4" height="8.6"/>
	</g>
	<g>
		<rect x="116.8" y="103.1" class="st0" width="8.6" height="83.3"/>
	</g>
	<g>
		<path class="st0" d="M160.4,187.2l-33.1-75.9c-1.1-2.8-3.6-4.5-6.4-4.5H107v-8.6h13.9c6.3,0,12.1,4,14.4,9.9l25.1,57.6l25.2-57.8
			c2.2-5.7,8-9.7,14.3-9.7h13.9v8.6h-13.9c-2.8,0-5.4,1.8-6.4,4.4L160.4,187.2z"/>
	</g>
	<g>
		<rect x="184.5" y="184.5" class="st0" width="30.3" height="8.6"/>
	</g>
	<g>
		<rect x="195.4" y="103.1" class="st0" width="8.6" height="83.3"/>
	</g>
	<g>
		<rect x="225" y="184.5" class="st0" width="30.3" height="8.6"/>
	</g>
	<g>
		<rect x="235.8" y="103.1" class="st0" width="8.6" height="83.3"/>
	</g>
	<g>
		<path class="st0" d="M260.5,157.8c-1.8,0-3.2-0.1-3.8-0.2h-16.6V149l17.4,0c0.1,0,11.9,1.4,19.1-4.9c3.9-3.4,5.8-8.7,5.8-15.6
			c0-6.9-2-12.2-5.9-15.8c-7.3-6.5-19.3-5.3-19.4-5.3l-0.5,0h-32.5v-8.6h32.3c2.2-0.2,16.2-1.1,25.8,7.5c5.8,5.2,8.8,12.7,8.8,22.2
			c0,9.6-3,17-8.8,22.1C275.2,156.8,265.8,157.8,260.5,157.8z"/>
	</g>
	<path class="st0" d="M433.2,194.5c-5.6-5.2-19.6-19.3-33.9-22.9c0,0,0.2-18.7-12.5-22.1c-12.7-3.4-23.8,8.4-23.8,8.4
		s-41.2-4.7-57.7,6.8c0,0-3.9,2.6-2.5,5.8c0,0,1.3,3.5,6.8,1.5c5.6-2,21.9-9.9,40.2-7.2c0,0-20.3,17.5-23.5,29c0,0,5.9-3.4,9-3.4
		c0,0,15.9-22.3,23.3-24.7c0,0,29.2,3.2,35.3,11.9c0,0,1.7,27.3-6.7,35.4c0,0,2.6,5.3,1,8.6c0,0,14.3-16.1,11.8-41.9
		c0,0,9.1,0.7,27.8,19.9c0,0,6.9,7.1,9.5,4.1C439.1,201.5,438.7,199.7,433.2,194.5z M393.3,169.1c-8.2-5.6-26.3-8.9-26.3-8.9
		s5.9-9.3,16.5-6.7C394.1,156.2,393.3,169.1,393.3,169.1z"/>
	<path class="st0" d="M377.5,170.4c0,0-34.5,34.9-50.5,27.7c0,0-1.1-0.5-0.8-2.6c0,0,5.5-4,10.9-3.9c5.4,0.1,27.9-13.8,35.1-22.4
		C372.2,169.3,375.2,170.7,377.5,170.4z"/>
	<path class="st0" d="M378.2,170.9c0,0-9.2,39.1,8.1,51.5c0,0,2.6-2,0-9c-2.6-7-8.2-19.8-3.4-41.5
		C382.9,172,379.7,171.8,378.2,170.9z"/>
	<path class="st0" d="M409.5,150.5c0,0-2.2,5.3,2.1,10.3c4.3,5.1,27.4,37.2,27.4,37.2s-14-15-21-19.4c0,0-12.4-15.4-12.9-17.6
		C404.6,159,402.8,155.7,409.5,150.5z"/>
	<path class="st0" d="M403.1,155.9c0,0,3.1-9.1,18.6-9.7c15.5-0.5,42.7-0.6,47.2,2.7c4.6,3.3-18.9,9.8-18.9,9.8l4.6,4
		c0,0,24.3-8.4,25.2-13.7c0.9-5.3-24.3-10.3-46.1-10.1S402.2,144.6,403.1,155.9z"/>
	<path class="st0" d="M417.4,147.5h3.9c0,0,4.3,14.3,20.8,12.4l4.1,4.3C446.1,164.2,419.9,170,417.4,147.5z"/>
	<path class="st0" d="M435.5,151.1c0,0,31.5,35.3,36.7,39.1c5.2,3.8,7.7,2.8,7.7,2.8s2.7-2.2-1.9-7.8s-41-35.7-41-35.7
		s-0.8-0.5-1.5,0.1C434.9,150.1,435.5,151.1,435.5,151.1z"/>
	<path class="st0" d="M417.9,137c0,0,4-1.5,4.8-1.3c0,0,8.6-26.6,54.6-31.1c0,0,6.6,0.4,6.6-4.7c0-4.4-9.4-2.8-9.4-2.8
		S422.7,103.7,417.9,137z"/>
	<path class="st0" d="M426.4,131.1c0,0,5.9-7.8,9.7-8.5c3.8-0.7,40.2,0,40.2,0s12.8,4.1,14.8,6.5C491,129,436.4,124.5,426.4,131.1z"
		/>
	<path class="st0" d="M457.9,36.9c0,0,6.7-3.1,7.3-4.7c0,0-8.2,69.3-61.2,89.5l1.2-8C405.2,113.7,446.1,94.6,457.9,36.9z"/>
	<path class="st0" d="M464,29.9c0,0,0-8.6-6.1-7c-6,1.6-52.6,20.7-61.2,90.6l-6.9-9.4c0,0,7-17.5,7-37.9s-14.2-42.9-16.6-43.5
		c-2.5-0.6-12.1,18.2-9.9,47.5c1.8,24.2,14.7,34.4,14.7,34.4l-3.1,7c0,0-38.8-48.9-42.3-48.1c-3.5,0.8,4.3,48.9,27.4,67
		c4.9,3.6,11-4.1,11-4.1s5.4,6.5-2,10.7c-7.4,4.2-10.6,5.2-26.5,1.7s-27.4-23.7-33.9-16.5c-6.5,7.1,23.7,22.7,42.8,23.3
		c19.1,0.5,29.6-9.1,25.8-24.5l-1.1-1.4l4.4-7.2l7.5,9.8l-0.3,16.5c0,0,0.9,1.8,7.7-0.9c6.7-2.7,15.1-4.4,15.1-4.4s2.2-8.2,3.8-8.4
		c0,0-18.1,4.5-19,6.1C402.2,131.2,403,55.7,464,29.9z M368.3,123.7c-7.5-4.8-18.3-37.6-18.3-37.6l27.3,32.3
		C377.3,118.4,372,128.2,368.3,123.7z M385.5,93.9c0,0-14.3-15.6-5.1-54.9C380.4,39,395.2,59.2,385.5,93.9z"/>
	<path class="st0" d="M347.5,124.9c0,0-24.6-19-40.9-24c-16.3-5-5.2-11.5,0.7-9.9C313.2,92.6,342.7,110.5,347.5,124.9z"/>
	<path class="st0" d="M406.6,61.3c0,0,16.7-45.5,6.8-46.3C403.6,14.3,403.9,53.1,406.6,61.3z"/>
</g>
</svg>
