<?xml version="1.0" encoding="utf-8"?>
<!-- Generator: Adobe Illustrator 22.0.0, SVG Export Plug-In . SVG Version: 6.00 Build 0)  -->
<svg version="1.1" xmlns="http://www.w3.org/2000/svg" xmlns:xlink="http://www.w3.org/1999/xlink" x="0px" y="0px"
	 viewBox="0 0 500.9 392" style="enable-background:new 0 0 500.9 392;" xml:space="preserve">
<style type="text/css">
	.st0{fill:#001A45;}
	.st1{fill:#FFFFFF;}
	.st2{opacity:0.5;}
	.st3{fill:#B3E4FA;}
	.st4{fill:#D0ECF2;}
</style>
<g id="title">
</g>
<g id="_x32_020">
</g>
<g id="figure1">
</g>
<g id="figure2">
	<g class="st2">
		<g>
			<path class="st4" d="M19.1,300.4c0-4.2,0-8.3,0-12.5c0.2-0.9,0.4-1.9,0.5-2.8c0.3-14.6,2.6-29,6-43.1
				c7.7-31.8,22.2-60.4,41.5-86.6c11.5-15.7,24.2-30.4,38.7-43.5c8.6-7.8,17.2-15.7,26.3-23.1c15.7-12.7,32.4-24.1,49.9-34.5
				c17.5-10.4,35.5-19.7,54.1-27.8c16.6-7.2,33.8-12.2,51.4-16c20.7-4.5,41.6-7.8,62.9-8.1c0.9,0,1.9-0.3,2.8-0.5c4.3,0,8.6,0,13,0
				c0.9,0.2,1.9,0.4,2.8,0.5c17.2,0.4,34,3,50.6,7.6c31.5,8.7,58.2,25.3,80.4,49.2c5.4,5.8,5.4,5.8,5.4,13.7
				c0,104.7,0,209.4,0,314.1c0,5.2,0,5.2-5.1,5.2c-152,0-304.1,0-456.1,0c-0.8,0-1.6,0-2.4,0c-1.6,0.1-2.5-0.6-3.1-2.1
				c-10.9-28-18.1-56.8-19.1-87C19.5,302.1,19.2,301.2,19.1,300.4z"/>
		</g>
	</g>
</g>
</svg>
