<?xml version="1.0" encoding="utf-8"?>
<!-- Generator: Adobe Illustrator 22.0.0, SVG Export Plug-In . SVG Version: 6.00 Build 0)  -->
<svg version="1.1" xmlns="http://www.w3.org/2000/svg" xmlns:xlink="http://www.w3.org/1999/xlink" x="0px" y="0px"
	 viewBox="0 0 463.3 382" style="enable-background:new 0 0 463.3 382;" xml:space="preserve">
<style type="text/css">
	.st0{fill:#001A45;}
	.st1{fill:#FFFFFF;}
	.st2{opacity:0.5;}
	.st3{fill:#B3E4FA;}
	.st4{fill:#D0ECF2;}
</style>
<g id="title">
</g>
<g id="_x32_020">
</g>
<g id="figure1">
	<g class="st2">
		<g>
			<path class="st3" d="M396,382c-132,0-263.9,0-396,0C0,259.4,0,136.9,0,14.3c0.8-0.1,1.6-0.2,2.4-0.4c20.5-6,41.4-8.4,62.8-7.4
				c16.6,0.8,33,3.2,49,7.4c32.9,8.4,64.7,19.7,95.4,34.2c26.9,12.7,52.4,27.8,76.3,45.6c16.1,12.1,31.3,25.1,45.4,39.5
				c6.4,6.5,12.4,13.3,18.4,20.2C370.1,177,387.2,203,401,231c4.9,9.9,9.3,20,13.7,30.1c3.7,8.3,8.2,16.3,10.4,25.3
				c1,4,2.8,8,2.8,12.1c0,8.3-0.3,16.6-2.7,24.7c-2.1,7-3.2,14.2-5.7,21c-3.9,10.7-10,20.2-16.9,29.1
				C400.4,376.2,398.2,379.1,396,382z"/>
		</g>
	</g>
</g>
<g id="figure2">
</g>
</svg>
